<svg xmlns="http://www.w3.org/2000/svg" fill="#1f4340" preserveAspectRatio="none" viewBox="0 0 378.32 282.28"><defs/><path fill="#000" d="M365.34 139.31c0-.34 5.82-1.6 6.5-1.81 1-.31 2.85-.51 3.68-1.48s.67-2.63.66-4.4c0-8.13-1.52-16.26-2.21-24.34-.18-2.11-1.61-6.86-1.09-8.36.35-1 1.65-1.51 2.12-2.69a18.21 18.21 0 00.65-5.52c.13-3.62.1-7 .45-10.61.39-4.11-.36-4.21-2.75-5.65 1.86-2.91 3.82-5.45 4.26-9.81.24-2.35-.25-4.73-.17-7.1.07-2.22.23-4.41.23-6.66 0-5.55-.14-11.12-.44-16.65-.27-5-.71-17.38-.15-20.79a24.77 24.77 0 00.24-5.23 18.65 18.65 0 01.8-4.5c.71-3.45-.39-2.92-3-2.59a32.59 32.59 0 01-5.76 0C368 1.1 366 .46 364.69.78c-2.32.56-2.88 5.39-4.25 7.22-.73-1.32-1.09-3-1.93-4.2-1.11-1.61-2.52-1.45-4.23-1.44-4.47 0-28.11.84-35.16 1-13.51.24-26.92.72-40.46.51C265.46 3.62 252 4 238.84 3c-3.21-.24-6.6-.36-9.74-.88-2.7-.45-4.13-1.57-5.21.48-.8 1.52-.81 3.54-2.76 4.61-1.26.69-5.25 2-6.51.91s-.4-4.7-2.87-5.34c-1-.27-3.25.46-4.39.54-2 .15-4 .09-5.94 0-3.72-.08-5.93-.83-7.19 1.79-.92 1.91-1.5 4.06-3.56 5.54q-1.44-2.67-2.76-5.36c-1-2-1-2.12-4.12-2.17a155.92 155.92 0 00-18.16.36c-13.22 1.36-25.92.24-39.13-.31-5.79-.24-11.57-.57-17.36-.73-6.19-.18-13-.94-18.83.44a45.34 45.34 0 01-7.35.8 31.2 31.2 0 01-4.28.13c-.91-.07-2.42-.66-3.28-.55-2.24.3-3.93 3.4-6 3.4-1.88 0-4.34-2.87-5.75-3.72C59.69.66 51.5 1.37 46.49 1.19 39.92.95 33.34.8 26.78.54c-5.59-.22-18 0-21.1-.12C4.53.37 1.77-.38.77.25s-.68 3.39-.69 5c0 4.12.56 8.24.66 12.36C.86 22.44.48 39.48.33 46.4 0 59.13.7 72.08.87 84.83c0 3.18-.16 5.6.89 8.13s.8 4.55.82 7.56c0 2.55 0 5.12.09 7.67a29.9 29.9 0 01.17 3.81c-.27 2.11-.24.87-1.09 1.73-.45.45-.53-.32-.87.56-.28.73 0 3.18 0 4 0 2.66 0 5.34.13 8s0 4.78 1.13 6.42c1.28 1.89 3.31 3.21 4.75 4.83 1.27 1.43 1.93 1.92.32 3.12a11.56 11.56 0 01-4.34 1.65c-1.43.35-1.52 0-1.9 2.21-.53 3.07-.08 7.69-.13 10.92-.21 12-.1 24.08-.64 36.11-.14 3.05-.08 6.14-.08 9.2 0 3.91 0 4.22 2 5.88.71.59 2.68 1.81 2.74 3.65.05 1.57-2.32 3.38-2.86 4.89-1.25 3.53-.81 9.44-1 13.53-.28 7 0 28.29-.24 32.76-.2 3.63-.52 7.21-.53 10.85 0 2-.11 4-.17 6-.06 2.3.52 2 2.4 1.93 3.51-.05 14.49-1 20.81-1.2q10.34-.39 20.71-.64 5.56-.14 11.13-.13c2.43 0 5.55.51 7.88.33 2.8-.22 4.54-2.5 7.24-3.12 3.19-.74 4.39.55 6.47 1.93 2.48 1.65 3.12 2.24 6.57 2.11s6.88.29 10.3.43c7.13.31 14.33.11 21.47.12 14.84 0 29.59.72 44.43.66h21.26c1.14 0 3.86.3 4.89 0 1.83-.53 1.62-1.17 2-2.43.3-1.06.57-5 2.22-5.55 2.16.92 1.85 3.91 3.54 5.11s2.59.87 5.22.3c3-.66 3-1.57 6-.47a32.91 32.91 0 004.23 1.46c1.62.38 4.08.11 5.48.61 2.7 1 1.48 1.65 4.92 1.65 3.28 0 6.49.65 9.77.78 6.84.27 13.52-.33 20.32-.56 5.86-.2 11.73-.35 17.56-.76 6.5-.45 12.9-.13 19.39-.34a14.77 14.77 0 007.1-1.8 21.18 21.18 0 017.45-1.57 52.37 52.37 0 019.87.07c1.59.16 3.18.4 4.8.42 1.24 0 3.4-.49 4.47 0 2 .87 1 2.48 3.66 3s6.35-.19 9.17-.18c6.93 0 25.31 1.91 29.76 1.63a70.84 70.84 0 0111.23-.17c1.62.15 3.15.84 3.67-.89s-.46-4.9-.54-6.87c-.15-4 .87-7.82 1.25-11.77.42-4.36.11-25-.25-31.8-.68-12.75-1-25.82-1.18-38.61 0-3.6-.1-7.18-.21-10.78-.07-2.2.37-6.23-.7-7.88-1.23-1.89-4.09-.57-3.75-4.15.25-2.59 2.38-5.23 3.43-7 1.49-2.48 1.17-4.81 1.06-8.06-.1-2.91.41-7.56-.21-10.29-.57-2.52-3.22-2.27-4.85-2.76-2-.61-4.08-1.2-6.12-1.78-.05-.05 1.06.33-.04.02z" opacity=".3"/><path d="M362.73 139.33c0-.33 5.73-1.57 6.41-1.78 1-.31 2.81-.5 3.63-1.46s.66-2.59.65-4.33c0-8-1.5-16-2.18-24-.18-2.08-1.59-6.76-1.08-8.23.35-1 1.63-1.48 2.09-2.66a17.94 17.94 0 00.64-5.44c.13-3.57.1-6.88.44-10.45.39-4-.36-4.15-2.71-5.56 1.83-2.87 3.76-5.37 4.19-9.66.23-2.31-.24-4.66-.17-7 .07-2.18.23-4.34.23-6.56 0-5.47-.14-11-.43-16.41-.26-4.88-.7-17.12-.14-20.48a24.41 24.41 0 00.24-5.16 18.38 18.38 0 01.79-4.43c.7-3.4-.39-2.88-2.93-2.55a32.11 32.11 0 01-5.68 0c-1.33-.06-3.34-.69-4.62-.38-2.28.55-2.83 5.31-4.19 7.12-.72-1.3-1.07-2.94-1.9-4.14-1.1-1.59-2.48-1.43-4.17-1.42-4.41 0-27.7.83-34.64 1-13.31.24-26.53.71-39.86.5-13-.21-26.3.17-39.23-.78-3.17-.23-6.5-.35-9.6-.87-2.66-.44-4.07-1.55-5.13.47-.79 1.49-.8 3.49-2.72 4.55-1.24.68-5.17 1.95-6.41.9s-.39-4.63-2.83-5.26c-1-.26-3.21.45-4.32.54-1.93.15-3.91.09-5.85 0-3.67-.08-5.85-.81-7.08 1.76-.9 1.88-1.48 4-3.5 5.46q-1.42-2.63-2.72-5.28c-.94-1.93-1-2.08-4.06-2.13a153.61 153.61 0 00-17.89.42c-13 1.34-25.54.23-38.55-.31-5.7-.24-11.4-.56-17.11-.72-6.1-.17-12.79-.93-18.55.43a44.67 44.67 0 01-7.24.79 30.74 30.74 0 01-4.22.13c-.9-.07-2.38-.65-3.23-.54-2.21.3-3.88 3.35-5.93 3.35-1.85 0-4.27-2.83-5.66-3.67-3.89-2.34-12-1.65-16.91-1.83-6.48-.26-12.95-.39-19.42-.64-5.51-.22-17.74 0-20.79-.12-1.13 0-3.85-.78-4.84-.17s-.67 3.34-.68 5c0 4.06.55 8.12.65 12.18.11 4.71-.26 21.5-.41 28.32-.28 12.55.37 25.3.54 37.86 0 3.13-.15 5.52.87 8s.78 4.48.81 7.45c0 2.51 0 5 .09 7.56a29.46 29.46 0 01.17 3.8c-.27 2.08-.23.86-1.08 1.71-.44.45-.52-.32-.86.55-.28.72 0 3.13 0 4 0 2.62 0 5.26.12 7.87s0 4.71 1.12 6.32c1.26 1.86 3.26 3.16 4.68 4.76 1.25 1.41 1.9 1.89.31 3.07a11.39 11.39 0 01-4.28 1.62c-1.4.34-1.49 0-1.87 2.18-.52 3-.07 7.58-.13 10.76-.21 11.87-.09 23.72-.64 35.58-.14 3-.08 6-.08 9.06 0 3.86 0 4.16 2 5.8.7.58 2.64 1.78 2.7 3.6.05 1.55-2.29 3.33-2.82 4.81-1.24 3.47-.8 9.3-1 13.33-.28 6.88 0 27.88-.24 32.28-.19 3.58-.51 7.1-.53 10.69 0 2-.11 3.92-.17 5.89-.06 2.26.51 1.93 2.36 1.9 3.46-.05 14.27-.94 20.51-1.18q10.19-.39 20.4-.63 5.48-.13 11-.13c2.39 0 5.47.51 7.76.33 2.76-.21 4.48-2.46 7.13-3.08 3.14-.73 4.32.54 6.38 1.9 2.45 1.62 3.07 2.21 6.47 2.08s6.78.28 10.15.43c7 .3 14.11.11 21.16.11 14.62 0 29.15.71 43.78.66h20.95c1.13 0 3.81.29 4.81 0 1.8-.52 1.6-1.16 2-2.39.3-1 .56-5 2.19-5.47 2.13.9 1.82 3.85 3.49 5s2.55.86 5.15.29c3-.65 3-1.55 5.9-.46a32.42 32.42 0 004.16 1.44c1.6.37 4 .11 5.4.61 2.66 1 1.46 1.62 4.85 1.62 3.23 0 6.39.64 9.63.77 6.74.27 13.32-.33 20-.56 5.77-.2 11.55-.35 17.3-.75 6.4-.45 12.71-.13 19.1-.34a14.55 14.55 0 007-1.77 20.86 20.86 0 017.34-1.55 51.6 51.6 0 019.73.07c1.57.16 3.13.39 4.73.41 1.23 0 3.35-.48 4.4 0 2 .86 1 2.45 3.61 3s6.26-.19 9-.18c6.83 0 24.94 1.88 29.32 1.61a69.79 69.79 0 0111.07-.17c1.59.15 3.1.83 3.61-.87s-.46-4.83-.53-6.77c-.15-3.94.86-7.7 1.24-11.6.42-4.29.11-24.62-.25-31.33-.67-12.56-1-25.44-1.16-38 0-3.55-.1-7.08-.21-10.62-.07-2.17.36-6.14-.69-7.76-1.21-1.86-4-.56-3.69-4.08.24-2.55 2.34-5.15 3.38-6.89 1.46-2.44 1.15-4.74 1-7.94-.1-2.87.4-7.45-.21-10.14-.56-2.48-3.17-2.24-4.77-2.71-2-.6-4-1.18-6-1.76-.04-.21 1.05.16-.04-.15z" data-name="color-fill"/><path fill="#000" d="M373.71 180.61c-.07-2.17.36-6.14-.69-7.76-1.21-1.86-4-.56-3.69-4.08.24-2.55 2.34-5.15 3.38-6.89 1.46-2.44 1.15-4.74 1-7.94-.1-2.87.4-7.45-.21-10.14-.56-2.48-3.17-2.24-4.77-2.71-2-.6-4-1.18-6-1.76 0-.33 5.73-1.57 6.41-1.78 1-.31 2.81-.5 3.63-1.46s.66-2.59.65-4.33c0-8-1.5-16-2.18-24-.18-2.08-1.59-6.76-1.08-8.23.35-1 1.63-1.48 2.09-2.66a17.94 17.94 0 00.64-5.44c.13-3.57.1-6.88.44-10.45.39-4-.36-4.15-2.71-5.56.9-1.41 1.83-2.74 2.59-4.24a2.2 2.2 0 01-.6-.33A25.81 25.81 0 00357.16 65a65.42 65.42 0 00-7.29.14c-2.4.14-4.78.3-7.16.23-2.6-.07-5.18-.22-7.74-.42s-5.11-.45-7.63-.74-5-.59-7.49-.91l-7.34-.94c-2.42-.3-4.82-.59-7.18-.83s-4.71-.45-7-.59a37.72 37.72 0 00-6.56.2 61.59 61.59 0 00-6.36 1.09c-2.09.46-4.16 1-6.21 1.51s-4.09 1-6.13 1.45-4.11 2.46-6.31 1.45a35.35 35.35 0 00-6-2.12 36.35 36.35 0 00-5.8-1 45.66 45.66 0 00-5.67-.13c-1.87.07-3.73.23-5.58.44s-3.69.47-5.52.73-3.67.52-5.5.74l-7.15.83q-3.57.4-7.14.76t-7.15.68q-3.58.32-7.17.58t-7.2.47q-3.61.2-7.25.34c-2.1.08-4.21.08-6.33 0s-4.25-.15-6.39-.27-4.29-.26-6.46-.39-4.34-.26-6.52-.35-4.57 0-6.87.15a50.49 50.49 0 01-7 0c-2.87-.27-5.79-2.38-8.7-2.69a50.73 50.73 0 00-6.75-.13c-2.27.06-4.55.16-6.85 0l-6-.36-6.05-.37q-3-.18-6.1-.33t-6.14-.22H97.3q-3.1 0-6.19.15c-2.26.1-4.53.15-6.8.23s-4.53.21-6.8.48a42.88 42.88 0 00-6.77 1.32A33.27 33.27 0 0064 69a29.63 29.63 0 01-7 2.74 29.18 29.18 0 01-7 .84 36.67 36.67 0 01-7-.69 55.68 55.68 0 01-7-1.84 19.5 19.5 0 00-7-.78c-2.38.11-4.76.39-7.13.32-2.73-.08-5.47-.09-8.21-.08s-5.48 0-8.22.08c-.71 0-1.43 0-2.14.09.14 5.34.29 10.68.36 16 0 3.13-.15 5.52.87 8s.78 4.48.81 7.45c0 2.51 0 5 .09 7.56a29.45 29.45 0 01.17 3.8c-.27 2.08-.23.86-1.08 1.71-.44.45-.52-.32-.86.55-.28.72 0 3.13 0 4 0 2.62 0 5.26.12 7.87s0 4.71 1.12 6.32c1.26 1.86 3.26 3.16 4.68 4.76 1.25 1.41 1.9 1.89.31 3.07a11.39 11.39 0 01-4.28 1.62c-1.4.34-1.49 0-1.87 2.18-.52 3-.07 7.58-.13 10.76-.17 9.53-.13 19.06-.39 28.59 7.86.47 15.76 1.73 23.61 2 7 .25 13.79-3 20.68-4.67 1.8-.45 3.55-2.42 5.39-1.46 10.08 5.32 19.86 2.59 29.69 1.37 12.83-1.59 25.7-2.62 38.84-1.59 11.84 1.22 23.09 8.28 35.37 8.17 37.61-.33 53 21.13 79.54 17.29 5.27-1.1 10.49 2.89 15.5 4.39 11 2.79 21.59 1.42 32.13-.78 6.38-.71 59.28 1.71 90.45 4.34-.24-7.26-.4-14.53-.48-21.72-.06-3.57-.12-7.1-.23-10.65z" opacity=".2"/><path fill="#fff" d="M4.18 41.7c.43-8 .92-16.06 1.07-24.1 0-3.46-.48-6.94-.36-10.4 0-1.4-.33-2 .79-2.53a14.42 14.42 0 014.77-1.37c6.85.32 13.7.41 20.54.78 6.39.41 12.79.74 19.18 1.1 4.88.29 12.87-.1 16.69 2 1.36.75 3.71 3.21 5.55 3.26 2 0 3.73-2.52 5.92-2.73.84-.08 2.3 4.64 3.18 4.72 1.36.12 2.82-4.17 4.17-4.22a50.46 50.46 0 007.17-.53c6-1 12.35-.48 18.35-.06 5.64.22 11.27.57 16.91.84 12.75.66 25.37 1.26 38.13.57 5.75-.48 11.88-.34 17.69-.25 3 0 3.09.18 4 1.82s1.75 3 2.69 4.5c2-1.25 2.57-3.05 3.47-4.65 1.22-2.2 5.91-1.57 9.54-1.52 1.91 0 1.34 3.43 3.25 3.3 1.1-.08 3.27-4.05 4.27-3.83 2.41.53 1.52 3.54 2.81 4.47s5.11-.21 6.34-.8a12 12 0 004.57-3.89c1-1.73.54-.8 3.17-.44 3.07.42 6.37.49 9.5.66 12.94.48 25.86.26 38.81.15 13.15-.16 26.28-.7 39.42-1.24 11.45-.51 22.86-1.24 34.23-1.79 1.67-.07 3-.24 4.15 1.08.85 1 3.13 4.06 3.87 5.15 1.3-1.58 3.65-7.33 5.89-7.88 1.26-.31-.55.16.77.17a36.57 36.57 0 005.61-.22c2.5-.37 3.56-.85 3 2.07a13.79 13.79 0 00-.67 3.8 17.94 17.94 0 01-.12 4.4c-.47 2.88.24 13.29.62 17.44.42 4.63.69 9.3.81 14 .05 1.89-.06 3.73-.08 5.6s.41 3.59.36 5.37h.52c.07-1.4.13-2.8.13-4.23 0-5.47-.14-11-.43-16.41-.26-4.88-.7-17.12-.14-20.48a24.42 24.42 0 00.24-5.16 18.38 18.38 0 01.79-4.43c.7-3.4-.39-2.88-2.93-2.55a32.1 32.1 0 01-5.68 0c-1.33-.06-3.34-.69-4.62-.38-2.28.55-2.83 5.31-4.19 7.12-.72-1.3-1.07-2.94-1.9-4.14-1.1-1.59-2.48-1.43-4.17-1.42-4.41 0-27.7.83-34.64 1-13.31.24-26.53.71-39.86.5-13-.21-26.3.17-39.23-.78-3.17-.23-6.5-.35-9.6-.87-2.66-.44-4.07-1.55-5.13.47-.79 1.49-.8 3.49-2.72 4.55-1.24.68-5.17 1.95-6.41.9s-.39-4.63-2.83-5.26c-1-.26-3.21.45-4.32.54-1.93.15-3.91.09-5.85 0-3.67-.08-5.85-.81-7.08 1.76-.9 1.88-1.48 4-3.5 5.46q-1.42-2.63-2.72-5.28c-.94-1.93-1-2.08-4.06-2.13a153.63 153.63 0 00-17.88.35c-13 1.34-25.54.23-38.55-.31-5.7-.24-11.4-.56-17.11-.72-6.1-.17-12.79-.93-18.55.43a44.66 44.66 0 01-7.24.79 30.74 30.74 0 01-4.22.13c-.9-.07-2.38-.65-3.23-.54-2.21.3-3.88 3.35-5.93 3.35-1.85 0-4.27-2.83-5.66-3.67-3.89-2.34-12-1.65-16.91-1.83-6.48-.26-12.95-.39-19.42-.64-5.51-.22-17.74 0-20.79-.12-1.13 0-3.85-.78-4.84-.17s-.67 3.34-.68 5c0 4.06.55 8.12.65 12.18s-.18 17.64-.35 25.47c.32-.84.64-1.69 1-2.52-.01-.28 0-.52.01-.76z" opacity=".2"/><path fill="#fff" d="M5.23 48.18c1.28-.33 2.56-.66 3.84-1s2.56-.59 3.85-.81a23.64 23.64 0 003.3-1.1 4.62 4.62 0 013.42 0 15.22 15.22 0 003.49 1.06 8.5 8.5 0 003.34-.08 7.9 7.9 0 003.16-1.59 13.69 13.69 0 002.94-3.47 15.88 15.88 0 012.81-3.43 13.19 13.19 0 013-2 21.4 21.4 0 013.12-1.22c1.05-.33 2.11-.62 3.15-1s1.92-.59 2.88-.83 1.93-.44 2.9-.61 1.94-.32 2.9-.45 1.93-.24 2.9-.34l2.89-.31 2.85-.3a19.1 19.1 0 003.2-.78 11.77 11.77 0 013.18-.61c1.4 0 3 1.75 4.41 1.7a11.79 11.79 0 003.24-.73 19.19 19.19 0 013.2-.89c1-.15 2.07-.26 3.1-.37s2.05-.2 3.07-.32 2-.25 3-.43a24.32 24.32 0 003-.72q1.69-.53 3.35-1.13T98 25.17q1.65-.65 3.28-1.35t3.26-1.45q1.63-.75 3.25-1.53t3.25-1.6c.83-.42 1.65-.87 2.48-1.33s1.66-.91 2.5-1.32a18.23 18.23 0 012.56-1 10.57 10.57 0 012.67-.49 8.8 8.8 0 012.84.34 11.29 11.29 0 013.06 1.44c1.16.75 1.83-1.45 2.77-2.12s1.79-1.36 2.69-2.09 1.8-1.48 2.72-2.17a18.12 18.12 0 012.84-1.77 9.07 9.07 0 013-.91c1.1-.11 2.22-.16 3.36-.18s2.3 0 3.47 0l3.55.13c1.2 0 2.41.08 3.62.08s2.44 0 3.66-.11a35 35 0 003.67-.43 19.83 19.83 0 003.32-1 16.24 16.24 0 013.23-.91c-1.06.06-2.11.14-3.15.25-13 1.34-25.54.23-38.55-.31-5.7-.24-11.4-.56-17.11-.72-6.1-.17-12.79-.93-18.55.43a44.66 44.66 0 01-7.24.79 30.74 30.74 0 01-4.22.13c-.9-.07-2.38-.65-3.23-.54-2.21.3-3.88 3.35-5.93 3.35-1.85 0-4.27-2.83-5.66-3.67-3.89-2.34-12-1.65-16.91-1.83-6.38-.28-12.85-.41-19.32-.66-5.51-.22-17.74 0-20.79-.12-1.13 0-3.85-.78-4.84-.17s-.67 3.34-.68 5c0 4.06.55 8.12.65 12.18.11 4.71-.26 21.5-.41 28.32v1.65a3.19 3.19 0 012.12-1.3zM177.26 9.41c.63.75 1.07.11 1.46-.61.28-.52.47-1.47.38-3.61-2.9 0-5.83 0-8.72.11a6.62 6.62 0 012.63.61 12.63 12.63 0 014.25 3.5z" opacity=".1"/><path fill="#000" d="M283.94 208.6c-10.54 2.2-21.16 3.57-32.13.78-5-1.5-10.23-5.49-15.5-4.39-26.5 3.84-41.94-17.62-79.54-17.29-12.28.11-23.53-7-35.37-8.17-13.14-1-26 0-38.84 1.59-9.84 1.22-19.61 4-29.69-1.37-1.83-1-3.59 1-5.39 1.46-6.89 1.71-13.72 4.91-20.68 4.67-7.86-.28-15.75-1.53-23.61-2-.06 2.33-.14 4.66-.25 7-.14 3-.08 6-.08 9.06 0 3.86 0 4.16 2 5.8.7.58 2.64 1.78 2.7 3.6.05 1.55-2.29 3.33-2.82 4.81-1.24 3.47-.8 9.3-1 13.33-.28 6.88 0 27.88-.24 32.28-.19 3.58-.51 7.1-.53 10.69 0 2-.11 3.92-.17 5.89-.06 2.27.51 1.93 2.36 1.9 3.46-.05 14.27-.94 20.51-1.18q10.19-.39 20.4-.63 5.48-.13 11-.13c2.39 0 5.47.51 7.76.33 2.76-.21 4.48-2.46 7.13-3.08 3.14-.73 4.32.54 6.38 1.9 2.45 1.62 3.07 2.21 6.47 2.08s6.78.28 10.15.43c7 .3 14.11.11 21.16.11 14.62 0 29.15.71 43.78.66h20.95c1.13 0 3.81.29 4.81 0 1.8-.52 1.6-1.16 2-2.39.3-1 .56-5 2.19-5.47 2.13.9 1.82 3.85 3.49 5s2.55.86 5.15.29c3-.65 3-1.55 5.9-.46a32.41 32.41 0 004.16 1.44c1.6.37 4 .11 5.4.61 2.66 1 1.46 1.62 4.85 1.62 3.23 0 6.39.64 9.63.77 6.74.27 13.32-.33 20-.56 5.77-.2 11.55-.35 17.3-.75 6.4-.45 12.71-.13 19.1-.34a14.55 14.55 0 007-1.77 20.86 20.86 0 017.34-1.55 51.61 51.61 0 019.73.07c1.57.16 3.13.39 4.73.41 1.23 0 3.35-.48 4.4 0 2 .86 1 2.45 3.61 3s6.26-.19 9-.18c6.83 0 24.94 1.88 29.32 1.61a69.78 69.78 0 0111.07-.17c1.59.15 3.1.83 3.61-.87s-.46-4.83-.53-6.77c-.15-3.94.86-7.7 1.24-11.6.42-4.29.11-24.62-.25-31.33-.29-5.4-.51-10.86-.69-16.32-31.19-2.71-84.1-5.13-90.47-4.42z" opacity=".3"/><path fill="#000" d="M369.6 230.36a4.65 4.65 0 01-3.28 1.6c-1.72.29-3.43.59-5.15.87s-3.43.52-5.15.71a40.07 40.07 0 00-4.44 1 7.9 7.9 0 01-4.51-.05 24 24 0 00-4.52-1.16 14.71 14.71 0 00-4.42 0 12.68 12.68 0 00-4.3 1.51 17.1 17.1 0 00-4.17 3.39 19.53 19.53 0 01-4 3.36 19.86 19.86 0 01-4.13 2 35.71 35.71 0 01-4.22 1.13c-1.41.3-2.83.57-4.24.88s-2.58.54-3.87.75-2.58.38-3.88.53-2.58.27-3.87.37-2.57.19-3.85.26l-3.83.21-3.79.22a33 33 0 00-4.29.69 20.42 20.42 0 01-4.24.52c-1.85 0-3.86-1.85-5.68-1.84a20.39 20.39 0 00-4.38.63 32.92 32.92 0 01-4.3.81c-1.38.12-2.75.21-4.12.28s-2.73.14-4.08.23-2.7.19-4 .35-2.66.36-4 .64q-2.27.49-4.52 1t-4.47 1.16q-2.23.61-4.44 1.27t-4.41 1.32q-2.21.7-4.41 1.44l-4.42 1.56c-1.13.39-2.26.83-3.38 1.26s-2.26.87-3.4 1.25a30.34 30.34 0 01-3.46 1 18.36 18.36 0 01-3.57.41 14.83 14.83 0 01-3.72-.42 16.41 16.41 0 01-3.92-1.53c-1.47-.79-2.54 1.41-3.84 2s-2.48 1.31-3.72 2-2.5 1.44-3.77 2.1a27.88 27.88 0 01-3.89 1.7 15.46 15.46 0 01-4.09.82c-1.46.08-2.94.1-4.45.08s-3-.07-4.57-.14l-4.68-.23c-1.58-.08-3.17-.15-4.77-.18s-3.22 0-4.84 0-3.25.15-4.89.32a33.84 33.84 0 00-4.47.92 26.67 26.67 0 01-4.56.84 11.11 11.11 0 01-4.84-.67 15.36 15.36 0 01-5.32-3.63c-.78-.77-1.4-.14-2 .57-.73.9-1.19 3.1-.36 10.76v1.07c8.71.2 17.42.44 26.16.4h20.95c1.13 0 3.81.29 4.81 0 1.8-.52 1.6-1.16 2-2.39.3-1 .56-5 2.19-5.47 2.13.9 1.82 3.85 3.49 5s2.55.86 5.15.29c3-.65 3-1.55 5.9-.46a32.41 32.41 0 004.16 1.44c1.6.37 4 .11 5.4.61 2.66 1 1.46 1.62 4.85 1.62 3.23 0 6.39.64 9.63.77 6.74.27 13.32-.33 20-.56 5.77-.2 11.55-.35 17.3-.75 6.4-.45 12.71-.13 19.1-.34a14.55 14.55 0 007-1.77 20.86 20.86 0 017.34-1.55 51.61 51.61 0 019.73.07c1.57.16 3.13.39 4.73.41 1.23 0 3.35-.48 4.4 0 2 .86 1 2.45 3.61 3s6.26-.19 9-.18c6.83 0 24.94 1.88 29.32 1.61a69.78 69.78 0 0111.07-.17c1.59.15 3.1.83 3.61-.87s-.46-4.83-.53-6.77c-.15-3.94.86-7.7 1.24-11.6.42-4.29.11-24.62-.25-31.33v-.87c-.25 0-.51-.09-.76-.11a5.08 5.08 0 00-4.71 2.03z" opacity=".2"/><path fill="#000" d="M2.85 199.92c0 3.86 0 4.16 2 5.8.7.58 2.64 1.78 2.7 3.6.05 1.55-2.29 3.33-2.82 4.81-1.24 3.47-.8 9.3-1 13.33-.28 6.88 0 27.88-.24 32.28-.19 3.58-.51 7.1-.53 10.69 0 2-.11 3.92-.17 5.89-.06 2.27.51 1.93 2.36 1.9 3.46-.05 14.27-.94 20.51-1.18q10.19-.39 20.4-.63 5.48-.13 11-.13c2.39 0 5.47.51 7.76.33 2.76-.21 4.48-2.46 7.13-3.08 3.14-.73 4.32.54 6.38 1.9 2.45 1.62 3.07 2.21 6.47 2.08s6.78.28 10.15.43c7 .3 14.11.11 21.16.11 14.62 0 29.15.71 43.78.66h20.95c1.13 0 3.81.29 4.81 0 1.8-.52 1.6-1.16 2-2.39.3-1 .56-5 2.19-5.47 2.13.9 1.82 3.85 3.49 5s2.55.86 5.15.29c3-.65 3-1.55 5.9-.46a32.41 32.41 0 004.16 1.44c1.6.37 4 .11 5.4.61 2.66 1 1.46 1.62 4.85 1.62 3.23 0 6.39.64 9.63.77 6.74.27 13.32-.33 20-.56 5.77-.2 11.55-.35 17.3-.75 6.4-.45 12.71-.13 19.1-.34a14.55 14.55 0 007-1.77 20.86 20.86 0 017.34-1.55 51.61 51.61 0 019.73.07c1.57.16 3.13.39 4.73.41 1.23 0 3.35-.48 4.4 0 2 .86 1 2.45 3.61 3s6.26-.19 9-.18c6.83 0 24.94 1.88 29.32 1.61a69.78 69.78 0 0111.07-.17c1.59.15 3.1.83 3.61-.87s-.46-4.83-.53-6.77c-.15-3.94.86-7.7 1.24-11.6.42-4.29.11-24.62-.25-31.33-.4-7.45-.67-15-.87-22.54q0 12.31.35 24.61c.2 9.62.24 19.39-.48 29-.46 3.59-1.55 7-1.49 10.68 0 1.8 1 4.59.37 6.28s-2 .87-3.59.67a72.6 72.6 0 00-10.94-.25c-9.67-.35-19.28-2-28.95-2.44-2.74-.09-6.25.5-8.93-.09s-1.59-2-3.52-2.85c-1-.45-3.14-.05-4.35-.1-1.58-.06-3.12-.31-4.67-.5a86.12 86.12 0 00-12.16-.3c-2.67.14-2.53-5.52-4.74-4.6-2.47 1 .71 7.33-2.5 7.37-6.3 0-17-.29-23.33 0-5.69.28-11.4.33-17.11.45-6.59.22-13.21.57-19.8.31-3.2-.14-6.32-.76-9.52-.78-3.35 0-2.16-.63-4.79-1.53-1.36-.46-5-.24-6.6-.59s-1.49-5.06-2.85-5.54c-2.87-1-1 4-3.94 4.61-2.57.52-5.39.79-7-.28s-1.34-3.83-3.45-4.66c-1.62.46-3.14 4.1-3.44 5.06-.35 1.14-.79 1.73-2.57 2.21a10.09 10.09 0 01-2.86 0q-10.36 0-20.71.1c-14.43 0-28.86-.23-43.29-.14-7 .15-13.95.38-20.92.26-3.33-.07-6.7-.38-10-.18s-4-.33-6.43-1.78c-2.05-1.21-3.24-2.35-6.33-1.6-2.62.63-4.28 2.76-7 3-2.26.22-5.31-.16-7.68-.09q-5.42.15-10.84.43-10.11.48-20.16 1.15c-6.75.52-13.49 1.33-20.25 1.83-1.82.1-2.39.43-2.38-1.67 0-1.82.07-3.63 0-5.45-.07-3.32.16-6.59.27-9.9 0-10-.56-19.9-.51-29.85.07-3.73-.5-9.1.65-12.36.49-1.4 3.14-7 3.05-8.4-.1-1.68-2.42-4.74-3.13-5.25-2-1.44-2-1.71-2.13-5.28-.07-2.79-.2.32-.13-2.47.06-7.9 0-15.42-.08-23.44-.06 6.14-.17 12.28-.45 18.42-.11 3.02-.06 6.06-.06 9.07z" opacity=".3"/></svg>